Coordinates
version=1
nRows=29
nColumns=24
inDegrees=yes

Units are S.I. units (second, meters, Newtons, ...)
Angles are in degrees.

endheader
time	pelvis_tilt	pelvis_list	pelvis_rotation	pelvis_tx	pelvis_ty	pelvis_tz	hip_flexion_r	hip_adduction_r	hip_rotation_r	knee_angle_r	ankle_angle_r	subtalar_angle_r	mtp_angle_r	hip_flexion_l	hip_adduction_l	hip_rotation_l	knee_angle_l	ankle_angle_l	subtalar_angle_l	mtp_angle_l	lumbar_extension	lumbar_bending	lumbar_rotation
      1.47566667	      0.20520840	     -2.98842293	     -8.49680499	      0.94863230	      0.98858350	      0.31316615	    -21.32887569	      5.27212840	      7.00262932	     -7.30930434	     15.67932702	     -3.26513985	      1.41733382	     29.02536784	     -5.10893403	     -4.67395755	     -0.59423267	     11.05878937	     -9.76347383	     -4.74170592	     -0.99452046	     -0.17727984	      9.30496398
      1.47983333	      0.09494943	     -2.89448897	     -8.63218111	      0.95486784	      0.98767852	      0.31301177	    -21.48690353	      5.08057566	      7.03963042	     -7.43809335	     15.45379203	     -3.29019693	      1.47562991	     29.21097697	     -5.04990494	     -4.38914393	     -1.37026646	     11.32466299	     -9.93140989	     -4.62426472	     -0.74581481	     -0.25531400	      9.58704709
      1.48400000	      0.02677471	     -2.78700076	     -8.78792976	      0.96116177	      0.98686527	      0.31287858	    -21.67314686	      4.85889473	      7.06820153	     -7.59694077	     15.20986532	     -3.31230639	      1.57254021	     29.31590255	     -4.97572959	     -4.14170396	     -2.09894222	     11.56627954	    -10.14761226	     -4.46580456	     -0.53620101	     -0.36877095	      9.82302793
      1.48816667	     -0.01498349	     -2.65405482	     -8.96214887	      0.96753711	      0.98612635	      0.31273884	    -21.86890385	      4.59476727	      7.07492153	     -7.79090853	     14.97539011	     -3.27593295	      1.60655810	     29.36004824	     -4.87518998	     -3.95350050	     -2.78534073	     11.79673417	    -10.34898670	     -4.40756230	     -0.37000613	     -0.49945957	      9.90362620
      1.49233333	     -0.12950343	     -2.55747132	     -9.13181725	      0.97392872	      0.98530284	      0.31258538	    -21.97482647	      4.38532240	      7.11450590	     -8.01575164	     14.69375108	     -3.31154920	      1.82542155	     29.46410583	     -4.80892997	     -3.67684361	     -3.43864539	     11.87391350	    -10.69798198	     -4.14874755	     -0.07213384	     -0.58311015	     10.26830050
      1.49650000	     -0.17087275	     -2.42129385	     -9.28677304	      0.98043084	      0.98460614	      0.31240205	    -22.15597410	      4.12140839	      7.08072469	     -8.23556463	     14.40116508	     -3.26503745	      1.87977577	     29.47630492	     -4.68668707	     -3.50577143	     -4.07357410	     12.00499061	    -10.87326510	     -4.07730506	      0.12446397	     -0.73131620	     10.32719325
      1.50066667	     -0.23641824	     -2.29101733	     -9.44454211	      0.98696297	      0.98390625	      0.31219312	    -22.29044261	      3.86540436	      7.04626593	     -8.49596758	     14.08449546	     -3.22729148	      1.95667133	     29.49194128	     -4.56877425	     -3.35368814	     -4.66444537	     12.04903908	    -11.06985095	     -3.98993374	      0.36456766	     -0.85884492	     10.46472048
      1.50483333	     -0.34766129	     -2.16345502	     -9.61051826	      0.99352979	      0.98316789	      0.31196275	    -22.35972998	      3.61572789	      7.04616766	     -8.78228241	     13.71250506	     -3.23359475	      4.75501240	     29.51648153	     -4.44731429	     -3.07698433	     -5.15532330	     11.73834018	    -11.69396007	     -1.36024018	      0.64762273	     -0.96294286	     10.60136821
      1.50900000	     -0.38752568	     -2.01555165	     -9.77650438	      1.00019426	      0.98257862	      0.31174356	    -22.49478028	      3.32970365	      6.98112680	     -9.08549754	     13.34224984	     -3.17442736	      4.77950361	     29.47223780	     -4.30989327	     -3.04724160	     -5.68539404	     11.70752111	    -11.77169781	     -1.33303175	      0.87516932	     -1.10946848	     10.80795079
      1.51316667	     -0.44684001	     -1.86937783	     -9.93664324	      1.00684410	      0.98198933	      0.31148607	    -22.58365837	      3.05120765	      6.92455675	     -9.43456608	     12.98186776	     -3.11642439	      4.82302779	     29.44053071	     -4.17046742	     -3.03451038	     -6.17982090	     11.53337518	    -11.89451661	     -1.29635601	      1.11862450	     -1.24486945	     10.99009329
      1.51733333	     -0.52094348	     -1.72877052	    -10.11729963	      1.01353946	      0.98142426	      0.31122457	    -22.63457285	      2.76958221	      6.88694622	     -9.82655635	     12.61904383	     -2.98911181	      5.19392199	     29.38073603	     -4.03097557	     -2.89650899	     -6.57900060	     11.15391135	    -12.36530517	     -1.01954666	      1.37174637	     -1.36677116	     11.36225703
      1.52150000	     -0.57358936	     -1.55940972	    -10.25921708	      1.02030210	      0.98090594	      0.31091529	    -22.69711246	      2.47043884	      6.77593733	    -10.22750647	     12.21462003	     -2.95649245	      5.25747532	     29.32528943	     -3.85889894	     -2.98546806	     -7.01120216	     10.83043935	    -12.43090438	     -0.97172775	      1.62824432	     -1.52865979	     11.40114649
      1.52566667	     -0.64785240	     -1.40076780	    -10.41899399	      1.02706289	      0.98041364	      0.31058596	    -22.69920890	      2.17354172	      6.65481065	    -10.69797973	     11.80563242	     -2.78344213	      5.75943277	     29.24644176	     -3.68679497	     -2.88777631	     -7.34186094	     10.26049328	    -12.92143356	     -0.60586871	      1.90095706	     -1.65658704	     11.71101898
      1.52983333	     -0.69640951	     -1.21709271	    -10.55485614	      1.03389150	      0.97998087	      0.31024789	    -22.72670489	      1.86028950	      6.52733482	    -11.15916916	     11.34003071	     -2.75641993	      5.84407335	     29.18091188	     -3.49928434	     -3.05221217	     -7.74181262	      9.81251881	    -12.93956418	     -0.54881555	      2.15891759	     -1.83977430	     11.71554272
      1.53400000	     -0.74961751	     -1.03867771	    -10.68302541	      1.04071416	      0.97958011	      0.30982919	    -22.70629908	      1.54564224	      6.32271014	    -11.69965317	     10.89549703	     -2.54362716	      6.47555906	     29.07903224	     -3.28663411	     -2.99161958	     -8.03173228	      9.08149805	    -13.45349528	     -0.12588786	      2.40921828	     -1.99058208	     11.99182004
      1.53816667	     -0.76046706	     -0.83167257	    -10.79364643	      1.04758956	      0.97927709	      0.30942203	    -22.73066159	      1.20680276	      6.13281488	    -12.21246902	     10.26811269	     -2.56546660	     10.21966907	     28.95734592	     -3.05245036	     -3.13641377	     -8.35924570	      8.38125353	    -13.60790592	      2.34257365	      2.61039543	     -2.21660240	     11.89813830
      1.54233333	     -0.80407562	     -0.64086366	    -10.88741339	      1.05445909	      0.97896941	      0.30896421	    -22.69533531	      0.89556316	      5.92111901	    -12.77939347	      9.70239601	     -2.49050509	     10.23330691	     28.90325853	     -2.83920515	     -3.34350013	     -8.75605398	      7.77711428	    -13.57740059	      2.33922626	      2.87338631	     -2.38626548	     11.96800802
      1.54650000	     -0.85768161	     -0.40429212	    -10.98578063	      1.06134906	      0.97869149	      0.30847866	    -22.58742469	      0.53089286	      5.62444978	    -13.45607976	      9.24259642	     -2.27713140	     10.38672818	     28.83359611	     -2.56791883	     -3.43401032	     -9.07822333	      7.01843355	    -13.85254024	      2.39197373	      3.15736294	     -2.63243993	     12.19441079
      1.55066667	     -0.86505274	     -0.20744077	    -11.03702987	      1.06821691	      0.97852541	      0.30792733	    -22.54635981	      0.22009104	      5.35591614	    -14.08608686	      8.57000470	     -2.20215672	     10.43884728	     28.75801097	     -2.32286799	     -3.60937238	     -9.48463909	      6.35067271	    -13.83119758	      2.40675468	      3.36767992	     -2.81507973	     12.19002435
      1.55483333	     -0.86144048	      0.04656465	    -11.04923600	      1.07512670	      0.97839987	      0.30728406	    -22.48002150	     -0.14461779	      4.96512965	    -14.76609560	      7.87356059	     -2.10157687	     12.02206802	     28.63591744	     -1.96784207	     -3.48672367	     -9.79001194	      5.46610250	    -14.38137928	      3.06489907	      3.55783719	     -3.10571871	     12.16307820
      1.55900000	     -0.86296771	      0.30134753	    -11.10501398	      1.08201744	      0.97834583	      0.30671114	    -22.36315843	     -0.52445121	      4.62277136	    -15.52596813	      7.25409247	     -1.93654000	     12.12377731	     28.57138364	     -1.67479130	     -3.75219911	    -10.22049950	      4.80311107	    -14.25766310	      3.09279735	      3.77365548	     -3.37375603	     12.22495241
      1.56316667	     -0.83383013	      0.57871155	    -11.09433354	      1.08892920	      0.97832553	      0.30598245	    -22.24941873	     -0.92507704	      4.10515431	    -16.33741539	      6.65745164	     -1.66901669	     12.43483680	     28.50953826	     -1.31104712	     -3.89463735	    -10.71066409	      4.16402865	    -14.35559501	      3.19421209	      3.95924589	     -3.67057396	     12.27962942
      1.56733333	     -0.79847603	      0.83323693	    -11.06940314	      1.09582248	      0.97839887	      0.30525095	    -22.15029524	     -1.28618404	      3.68608952	    -17.10216481	      5.73542506	     -1.67560222	     15.90363669	     28.43502142	     -0.95862693	     -3.93434336	    -11.19155882	      3.43776116	    -14.57264031	      4.27938561	      4.11598702	     -3.93957680	     12.23931398
      1.57150000	     -0.72544741	      1.12659833	    -11.01301996	      1.10271827	      0.97853218	      0.30445622	    -22.04244187	     -1.69844674	      3.11570191	    -17.96472227	      5.00106442	     -1.45295143	     15.97380488	     28.36988050	     -0.56723654	     -4.12953399	    -11.77759646	      3.01841102	    -14.38705864	      4.27596645	      4.23999751	     -4.28564286	     12.20611152
      1.57566667	     -0.64592828	      1.41136760	    -10.93751184	      1.10957955	      0.97871830	      0.30359214	    -21.91942371	     -2.10180212	      2.53481509	    -18.85721523	      4.18778232	     -1.23167366	     16.18676624	     28.31337179	     -0.16796288	     -4.24611084	    -12.39955464	      2.59125886	    -14.32618129	      4.28899974	      4.33341622	     -4.60807360	     12.13497065
      1.57983333	     -0.56365462	      1.71145594	    -10.83738330	      1.11648607	      0.97895183	      0.30272114	    -21.79196843	     -2.50622701	      1.95959819	    -19.75160222	      3.25239690	     -1.19652565	     16.25112131	     28.26081744	      0.25314720	     -4.34640449	    -13.04753796	      2.23117501	    -14.22996004	      4.28899716	      4.44638959	     -4.96712808	     12.09172851
      1.58400000	     -0.42335192	      2.03236673	    -10.71663014	      1.12334419	      0.97927280	      0.30176456	    -21.68270992	     -2.95697563	      1.26399264	    -20.72101490	      2.40393044	     -1.00637646	     16.49684512	     28.17082430	      0.71248338	     -4.48151727	    -13.73523813	      1.94971521	    -14.12291405	      4.29226043	      4.47134061	     -5.36163398	     11.95991699
      1.58816667	     -0.30973944	      2.33055673	    -10.57160608	      1.13020140	      0.97961735	      0.30078116	    -21.53979576	     -3.36520426	      0.61402789	    -21.68752579	      1.36028198	     -0.94574239	     16.60791727	     28.10819475	      1.15608956	     -4.53789142	    -14.44414425	      1.72986258	    -13.97979899	      4.29027219	      4.52954694	     -5.72455936	     11.89513321
      1.59233333	     -0.17546096	      2.63832905	    -10.41397081	      1.13706762	      0.97998558	      0.29975571	    -21.39500688	     -3.79673678	     -0.09184664	    -22.68610547	      0.27489700	     -0.91174566	     19.84204214	     28.06107159	      1.59811784	     -4.73913881	    -15.24930080	      1.73818459	    -13.62581013	      4.14390939	      4.55818599	     -6.08510668	     11.62488318
